<?xml version="1.0" encoding="UTF-8" standalone="no"?>
<svg
   height="16"
   width="12"
   viewBox="0 0 384 512"
   version="1.1"
   id="svg1"
   sodipodi:docname="location-heart.svg"
   xml:space="preserve"
   inkscape:version="1.3.2 (091e20e, 2023-11-25, custom)"
   xmlns:inkscape="http://www.inkscape.org/namespaces/inkscape"
   xmlns:sodipodi="http://sodipodi.sourceforge.net/DTD/sodipodi-0.dtd"
   xmlns="http://www.w3.org/2000/svg"
   xmlns:svg="http://www.w3.org/2000/svg"><defs
     id="defs1" /><sodipodi:namedview
     id="namedview1"
     pagecolor="#ffffff"
     bordercolor="#000000"
     borderopacity="0.25"
     inkscape:showpageshadow="2"
     inkscape:pageopacity="0.0"
     inkscape:pagecheckerboard="0"
     inkscape:deskcolor="#d1d1d1"
     inkscape:zoom="71.0625"
     inkscape:cx="5.994723"
     inkscape:cy="8"
     inkscape:window-width="3440"
     inkscape:window-height="1351"
     inkscape:window-x="-9"
     inkscape:window-y="-9"
     inkscape:window-maximized="1"
     inkscape:current-layer="svg1" /><!--!Font Awesome Free 6.5.1 by @fontawesome - https://fontawesome.com License - https://fontawesome.com/license/free Copyright 2023 Fonticons, Inc.--><path
     opacity="1"
     fill="#1e3050"
     d="M 215.7,499.2 C 267,435 384,279.4 384,192 384,86 298,0 192,0 86,0 0,86 0,192 c 0,87.4 117,243 168.3,307.2 12.3,15.3 35.1,15.3 47.4,0 z"
     id="path1"
     sodipodi:nodetypes="cssscc" /><path
     opacity="1"
     fill="#1e3050"
     d="m 132.43095,207.89025 51.65129,48.22119 c 2.14379,2.00088 4.97361,3.11566 7.91776,3.11566 2.94415,0 5.77397,-1.11478 7.91777,-3.11566 l 51.65127,-48.22119 c 8.68954,-8.08927 13.60599,-19.43712 13.60599,-31.29948 v -1.65787 c 0,-19.98021 -14.43492,-37.01627 -34.12929,-40.30343 -13.0343,-2.17238 -26.29728,2.08663 -35.61566,11.40501 L 192,149.46456 l -3.43008,-3.43008 c -9.31838,-9.31838 -22.58136,-13.57739 -35.61566,-11.40501 -19.69437,3.28716 -34.12929,20.32322 -34.12929,40.30343 v 1.65787 c 0,11.86236 4.91645,23.21021 13.60598,31.29948 z"
     id="path1-0"
     style="display:inline;fill:#ffffff;fill-opacity:1;stroke-width:0.28584" /></svg>
